<svg width="20" height="14" viewBox="0 0 20 14" fill="none" xmlns="http://www.w3.org/2000/svg">
<path d="M14.5 7C15.88 7 16.99 5.88 16.99 4.5C16.99 3.12 15.88 2 14.5 2C13.837 2 13.2011 2.26339 12.7322 2.73223C12.2634 3.20107 12 3.83696 12 4.5C12 5.16304 12.2634 5.79893 12.7322 6.26777C13.2011 6.73661 13.837 7 14.5 7ZM7 6C8.66 6 9.99 4.66 9.99 3C9.99 1.34 8.66 0 7 0C5.34 0 4 1.34 4 3C4 4.66 5.34 6 7 6ZM14.5 9C12.67 9 9 9.92 9 11.75V13C9 13.55 9.45 14 10 14H19C19.55 14 20 13.55 20 13V11.75C20 9.92 16.33 9 14.5 9ZM7 8C4.67 8 0 9.17 0 11.5V13C0 13.55 0.45 14 1 14H7V11.75C7 10.9 7.33 9.41 9.37 8.28C8.5 8.1 7.66 8 7 8Z" fill="#4DBFA3"/>
</svg>
