<svg width="16" height="18" viewBox="0 0 16 18" fill="none" xmlns="http://www.w3.org/2000/svg">
<path d="M0 16V7C0 6.68333 0.0709998 6.38333 0.213 6.1C0.355 5.81667 0.550667 5.58333 0.8 5.4L6.8 0.9C7.15 0.633333 7.55 0.5 8 0.5C8.45 0.5 8.85 0.633333 9.2 0.9L15.2 5.4C15.45 5.58333 15.646 5.81667 15.788 6.1C15.93 6.38333 16.0007 6.68333 16 7V16C16 16.55 15.804 17.021 15.412 17.413C15.02 17.805 14.5493 18.0007 14 18H11C10.7167 18 10.4793 17.904 10.288 17.712C10.0967 17.52 10.0007 17.2827 10 17V12C10 11.7167 9.904 11.4793 9.712 11.288C9.52 11.0967 9.28267 11.0007 9 11H7C6.71667 11 6.47933 11.096 6.288 11.288C6.09667 11.48 6.00067 11.7173 6 12V17C6 17.2833 5.904 17.521 5.712 17.713C5.52 17.905 5.28267 18.0007 5 18H2C1.45 18 0.979333 17.8043 0.588 17.413C0.196666 17.0217 0.000666667 16.5507 0 16Z" fill="#F1EFE8"/>
</svg>
