<svg width="18" height="18" viewBox="0 0 18 18" fill="none" xmlns="http://www.w3.org/2000/svg">
<path d="M2 18C1.45 18 0.979333 17.8043 0.588 17.413C0.196667 17.0217 0.000666667 16.5507 0 16V1C0 0.716667 0.0960001 0.479333 0.288 0.288C0.48 0.0966668 0.717333 0.000666667 1 0C1.28333 0 1.521 0.0960001 1.713 0.288C1.905 0.48 2.00067 0.717333 2 1V16H17C17.2833 16 17.521 16.096 17.713 16.288C17.905 16.48 18.0007 16.7173 18 17C18 17.2833 17.904 17.521 17.712 17.713C17.52 17.905 17.2827 18.0007 17 18H2ZM4 15C3.71667 15 3.47933 14.904 3.288 14.712C3.09667 14.52 3.00067 14.2827 3 14V7C3 6.71667 3.096 6.47933 3.288 6.288C3.48 6.09667 3.71733 6.00067 4 6H6C6.28333 6 6.521 6.096 6.713 6.288C6.905 6.48 7.00067 6.71733 7 7V14C7 14.2833 6.904 14.521 6.712 14.713C6.52 14.905 6.28267 15.0007 6 15H4ZM9 15C8.71667 15 8.47933 14.904 8.288 14.712C8.09667 14.52 8.00067 14.2827 8 14V2C8 1.71667 8.096 1.47933 8.288 1.288C8.48 1.09667 8.71733 1.00067 9 1H11C11.2833 1 11.521 1.096 11.713 1.288C11.905 1.48 12.0007 1.71733 12 2V14C12 14.2833 11.904 14.521 11.712 14.713C11.52 14.905 11.2827 15.0007 11 15H9ZM14 15C13.7167 15 13.4793 14.904 13.288 14.712C13.0967 14.52 13.0007 14.2827 13 14V11C13 10.7167 13.096 10.4793 13.288 10.288C13.48 10.0967 13.7173 10.0007 14 10H16C16.2833 10 16.521 10.096 16.713 10.288C16.905 10.48 17.0007 10.7173 17 11V14C17 14.2833 16.904 14.521 16.712 14.713C16.52 14.905 16.2827 15.0007 16 15H14Z" fill="#4DBFA3"/>
</svg>
